# xmcd CD database file
#
# Track frame offsets:
#	150
#	70034
#	129067
#	214107
#
# Disc length: 3768 seconds
#
# Revision: 0
# Processed by: cddbd v1.5PL3 Copyright (c) Steve Scherf et al.
# Submitted via: CDex 1.51
#
DISCID=2e0eb604
DTITLE=Ben Leinbach - The Spirit of Yoga
DYEAR=2000
DGENRE=New Age
TTITLE0=Khumjung
TTITLE1=Horizon of Gold
TTITLE2=Mother's Wingspan
TTITLE3=The Hierophant
EXTD=YEAR: 2000
EXTT0=
EXTT1=
EXTT2=
EXTT3=
PLAYORDER=
